<svg id="Flat" height="512" viewBox="0 0 64 64" width="512" xmlns="http://www.w3.org/2000/svg"><path d="m49 19v25a17 17 0 0 1 -17 17 17 17 0 0 1 -17-17v-25z" fill="#f8d7ad"/><path d="m34 38h-2v-8a5.00588 5.00588 0 0 1 5-5h8v2h-8a3.00328 3.00328 0 0 0 -3 3z" fill="#b39675"/><path d="m22 29h6v2h-6z" fill="#998064"/><path d="m37 29h6v2h-6z" fill="#998064"/><path d="m20 25h8v2h-8z" fill="#b39675"/><path d="m16.951 28.823h1.999v15.239h-1.999z" fill="#bcbcbc" transform="matrix(.759 -.651 .651 .759 -19.395 20.455)"/><path d="m38.43 35.443h15.239v1.999h-15.239z" fill="#bcbcbc" transform="matrix(.651 -.759 .759 .651 -11.588 47.689)"/><path d="m15 44h-.29188a4 4 0 0 1 -3.71389-2.51444l-.70814-1.77035a4 4 0 0 1 -.28609-1.48554v-10.22967h5z" fill="#e6c197"/><path d="m49 44h.29188a4 4 0 0 0 3.71389-2.51444l.70814-1.77034a4.00011 4.00011 0 0 0 .28609-1.48557v-10.22965h-5z" fill="#e6c197"/><path d="m14 9a6 6 0 0 0 -6 6v10.2404a6 6 0 0 0 2.09525 4.55554l1.60317 1.37414a2 2 0 0 0 3.30158-1.51852v-6.65156a3 3 0 0 1 3-3h4v-11z" fill="#494949"/><path d="m44 3a12 12 0 0 1 12 12v10.24039a6 6 0 0 1 -2.09525 4.55554l-1.60317 1.37414a2 2 0 0 1 -3.30158-1.51851v-7.49031a2 2 0 0 0 -3.24939-1.56174l-.10713.0857a5.99994 5.99994 0 0 1 -3.74817 1.31479h-17.89531a10 10 0 0 1 -10-10v-5a4 4 0 0 1 4-4z" fill="#565656"/><path d="m41.63245 39.54413-7.01667-2.33887a3.99871 3.99871 0 0 0 -1.26489-.20526h-2.70178a3.99871 3.99871 0 0 0 -1.26489.20526l-7.01667 2.33887a2 2 0 0 0 -1.36755 1.8974v15.50708a16.95884 16.95884 0 0 0 22 0v-15.50708a2 2 0 0 0 -1.36755-1.8974z" fill="#efefef"/></svg>