<svg id="Layer_1" enable-background="new 0 0 510 510" height="512" viewBox="0 0 510 510" width="512" xmlns="http://www.w3.org/2000/svg"><g><path d="m195 411.27v68.73l29 10 31-10 10-29.5-10-30.5-28.625-10.875z" fill="#697c86"/><path d="m283.333 411-28.333 9v60l30 10 30-10v-68.731z" fill="#465a61"/><path d="m45 210c0 115.794 94.206 210 210 210l10-199-10-221c-115.794 0-210 94.206-210 210z" fill="#78d3fc"/><path d="m255 0v420c115.794 0 210-94.206 210-210s-94.206-210-210-210z" fill="#5fa7fb"/><path d="m75 210c0 99.252 80.748 180 180 180l10-166.333-10-193.667c-99.252 0-180 80.748-180 180z" fill="#f0f7ff"/><path d="m255 30v360c99.252 0 180-80.748 180-180s-80.748-180-180-180z" fill="#d9e7ec"/><path d="m105 210c0 31.459 9.47 51.373 11.935 60.622l57.103-18.552-9.27-28.532-27.66 8.986c-2.733-14.405-2.895-29.76.022-45.051l27.64 8.98 9.27-28.531-27.622-8.975c6.497-13.763 15.533-26.099 26.503-36.4l17.043 23.458 24.27-17.634-17.064-23.487c13.002-7.182 27.468-12.024 42.83-13.949v29.065h15l10-29.25-10-30.75c-82.71 0-150 67.29-150 150z" fill="#d9e7ec"/><path d="m255 60v60h15v-29.064c15.362 1.924 29.827 6.767 42.829 13.948l-17.065 23.488 24.272 17.634 17.043-23.458c10.97 10.302 20.006 22.638 26.503 36.4l-27.622 8.975 9.27 28.532 27.641-8.981c2.925 15.335 2.746 30.688.022 45.052l-27.665-8.981-9.264 28.534 57.103 18.538c2.479-9.307 11.933-29.179 11.933-60.617 0-82.71-67.29-150-150-150z" fill="#c5d3dd"/><path d="m240 150v92.58l7.572 8.037 7.428-10.617 10-38.833-10-51.167z" fill="#ff712f"/><path d="m255 150v90l8.103 10.736 6.897-8.156v-92.58z" fill="#d63100"/><path d="m240 327.42v32.58h15l10-13.25-10-16.75-7.668-10.658z" fill="#ff712f"/><path d="m270 327.42-7.289-8.085-7.711 10.665v30h15z" fill="#d63100"/><path d="m210 285c0 24.814 20.187 45 45 45l10-42-10-48c-24.813 0-45 20.186-45 45z" fill="#697c86"/><path d="m300 285c0-24.814-20.186-45-45-45v90c24.814 0 45-20.186 45-45z" fill="#465a61"/><path d="m135 480v30h120l10-12.833-10-17.167z" fill="#465a61"/><path d="m255 480h120v30h-120z" fill="#263b43"/></g></svg>